<svg width="124" height="731" viewBox="0 0 124 731" fill="none" xmlns="http://www.w3.org/2000/svg">
<path d="M10.1397 652.856L8.37268 651.919L10.1397 652.856ZM31.2197 631.096L32.2003 632.839L32.2133 632.832L32.2261 632.824L31.2197 631.096ZM93.4398 631.096L92.4428 632.83L92.451 632.834L92.4592 632.839L93.4398 631.096ZM114.52 653.026L112.748 653.954L112.753 653.963L114.52 653.026ZM122 730.546L122 732.546L124 732.546L124 730.546L122 730.546ZM2.65975 730.546L0.659751 730.546L0.659751 732.546L2.65975 732.546L2.65975 730.546ZM27.4797 701.476L25.4797 701.476L25.4797 703.476L27.4797 703.476L27.4797 701.476ZM96.8398 701.476L96.8398 703.476L98.8398 703.476L98.8398 701.476L96.8398 701.476ZM4.65975 685.836C4.65975 673.523 7.09863 662.863 11.9068 653.793L8.37268 651.919C3.20753 661.663 0.659749 672.989 0.659749 685.836L4.65975 685.836ZM11.9068 653.793C16.7184 644.716 23.4758 637.747 32.2003 632.839L30.2392 629.353C20.8303 634.645 13.5344 642.182 8.37268 651.919L11.9068 653.793ZM32.2261 632.824C40.8338 627.812 50.8471 625.276 62.3298 625.276L62.3298 621.276C50.2391 621.276 39.5124 623.953 30.2134 629.368L32.2261 632.824ZM62.3298 625.276C73.6948 625.276 83.7135 627.81 92.4428 632.83L94.4367 629.362C85.0326 623.955 74.3114 621.276 62.3298 621.276L62.3298 625.276ZM92.4592 632.839C101.177 637.743 107.935 644.764 112.748 653.954L116.291 652.098C111.132 642.247 103.835 634.649 94.4203 629.353L92.4592 632.839ZM112.753 653.963C117.562 663.035 120 673.64 120 685.836L124 685.836C124 673.099 121.451 661.83 116.287 652.089L112.753 653.963ZM120 685.836L120 730.546L124 730.546L124 685.836L120 685.836ZM122 728.546L2.65975 728.546L2.65975 732.546L122 732.546L122 728.546ZM4.65975 730.546L4.65975 685.836L0.659749 685.836L0.659751 730.546L4.65975 730.546ZM98.8397 687.706C98.8397 676.343 95.7263 667.226 89.2571 660.635L86.4024 663.437C91.9465 669.086 94.8397 677.082 94.8397 687.706L98.8397 687.706ZM89.2571 660.635C82.7759 654.032 73.701 650.856 62.3298 650.856L62.3298 654.856C72.9452 654.856 80.8703 657.8 86.4024 663.437L89.2571 660.635ZM62.3298 650.856C50.9565 650.856 41.8351 654.032 35.2455 660.622L38.074 663.45C43.7244 657.8 51.7163 654.856 62.3298 654.856L62.3298 650.856ZM35.2455 660.622C28.6559 667.211 25.4797 676.333 25.4797 687.706L29.4797 687.706C29.4797 677.092 32.4235 669.101 38.074 663.45L35.2455 660.622ZM25.4797 687.706L25.4797 701.476L29.4797 701.476L29.4797 687.706L25.4797 687.706ZM27.4797 703.476L96.8398 703.476L96.8398 699.476L27.4797 699.476L27.4797 703.476ZM98.8398 701.476L98.8397 687.706L94.8397 687.706L94.8398 701.476L98.8398 701.476ZM100.92 532.74L100.278 530.846L98.9197 531.306L98.9197 532.74L100.92 532.74ZM100.92 577.28L98.9197 577.28L98.9197 578.714L100.278 579.175L100.92 577.28ZM122 584.42L124 584.42L124 582.986L122.641 582.526L122 584.42ZM122 614.85L121.319 616.731L124 617.701L124 614.85L122 614.85ZM2.65974 571.67L0.659744 571.67L0.659745 573.074L1.97927 573.551L2.65974 571.67ZM2.65974 538.01L1.97927 536.13L0.659743 536.607L0.659743 538.01L2.65974 538.01ZM122 494.83L124 494.83L124 491.98L121.319 492.95L122 494.83ZM122 525.6L122.641 527.495L124 527.034L124 525.6L122 525.6ZM78.4797 540.22L80.4797 540.22L80.4797 537.432L77.8384 538.326L78.4797 540.22ZM34.7897 555.01L34.1485 553.116L28.52 555.021L34.1551 556.907L34.7897 555.01ZM78.4797 569.63L77.8451 571.527L80.4797 572.409L80.4797 569.63L78.4797 569.63ZM98.9197 532.74L98.9197 577.28L102.92 577.28L102.92 532.74L98.9197 532.74ZM100.278 579.175L121.358 586.315L122.641 582.526L101.561 575.386L100.278 579.175ZM120 584.42L120 614.85L124 614.85L124 584.42L120 584.42ZM122.68 612.97L3.34022 569.79L1.97927 573.551L121.319 616.731L122.68 612.97ZM4.65974 571.67L4.65974 538.01L0.659743 538.01L0.659744 571.67L4.65974 571.67ZM3.34022 539.891L122.68 496.711L121.319 492.95L1.97927 536.13L3.34022 539.891ZM120 494.83L120 525.6L124 525.6L124 494.83L120 494.83ZM121.358 523.706L100.278 530.846L101.561 534.635L122.641 527.495L121.358 523.706ZM77.8384 538.326L34.1485 553.116L35.431 556.905L79.121 542.115L77.8384 538.326ZM34.1551 556.907L77.8451 571.527L79.1144 567.734L35.4244 553.114L34.1551 556.907ZM80.4797 569.63L80.4797 540.22L76.4797 540.22L76.4797 569.63L80.4797 569.63ZM2.65974 378.329L2.65974 376.329L0.659736 376.329L0.659736 378.329L2.65974 378.329ZM122 378.329L124 378.329L124 376.329L122 376.329L122 378.329ZM122 407.398L122 409.398L124 409.398L124 407.398L122 407.398ZM72.8697 407.398L72.8697 405.398L70.8697 405.398L70.8697 407.398L72.8697 407.398ZM72.8697 452.618L70.8697 452.618L70.8697 454.618L72.8697 454.618L72.8697 452.618ZM122 452.618L124 452.618L124 450.618L122 450.618L122 452.618ZM122 481.688L122 483.688L124 483.688L124 481.688L122 481.688ZM2.65974 481.689L0.659741 481.689L0.659741 483.689L2.65974 483.689L2.65974 481.689ZM2.65974 452.618L2.65974 450.618L0.659739 450.618L0.659739 452.618L2.65974 452.618ZM49.4097 452.618L49.4097 454.618L51.4097 454.618L51.4097 452.618L49.4097 452.618ZM49.4097 407.398L51.4097 407.398L51.4097 405.398L49.4097 405.398L49.4097 407.398ZM2.65974 407.398L0.659737 407.398L0.659737 409.398L2.65974 409.398L2.65974 407.398ZM2.65974 380.329L122 380.329L122 376.329L2.65974 376.329L2.65974 380.329ZM120 378.329L120 407.398L124 407.398L124 378.329L120 378.329ZM122 405.398L72.8697 405.398L72.8697 409.398L122 409.398L122 405.398ZM70.8697 407.398L70.8697 452.618L74.8697 452.618L74.8697 407.398L70.8697 407.398ZM72.8697 454.618L122 454.618L122 450.618L72.8697 450.618L72.8697 454.618ZM120 452.618L120 481.688L124 481.688L124 452.618L120 452.618ZM122 479.688L2.65974 479.689L2.65974 483.689L122 483.688L122 479.688ZM4.65974 481.689L4.65974 452.618L0.659739 452.618L0.659741 481.689L4.65974 481.689ZM2.65974 454.618L49.4097 454.618L49.4097 450.618L2.65974 450.618L2.65974 454.618ZM51.4097 452.618L51.4097 407.398L47.4097 407.398L47.4097 452.618L51.4097 452.618ZM49.4097 405.398L2.65974 405.398L2.65974 409.398L49.4097 409.398L49.4097 405.398ZM4.65974 407.398L4.65974 378.329L0.659736 378.329L0.659737 407.398L4.65974 407.398ZM115.37 331.843L117.114 332.821L117.119 332.812L115.37 331.843ZM93.6097 354.113L94.611 355.844L94.6234 355.837L94.6356 355.83L93.6097 354.113ZM30.5397 354.113L29.5138 355.83L29.5216 355.834L29.5294 355.839L30.5397 354.113ZM8.77974 331.843L7.03041 332.812L7.03545 332.821L8.77974 331.843ZM8.77973 270.133L10.524 271.111L10.529 271.102L8.77973 270.133ZM30.5397 248.033L31.5343 249.768L31.5422 249.763L31.5501 249.759L30.5397 248.033ZM93.6097 248.033L94.6201 246.307L94.611 246.301L93.6097 248.033ZM115.37 270.133L117.114 269.154L115.37 270.133ZM87.1497 278.123L85.8031 279.601L85.8104 279.608L85.8177 279.615L87.1497 278.123ZM36.8297 278.123L38.1618 279.615L38.1758 279.602L38.1896 279.589L36.8297 278.123ZM36.6597 324.023L35.2999 325.489L35.3071 325.496L35.3144 325.503L36.6597 324.023ZM87.3197 324.023L88.6518 325.515L88.6658 325.502L88.6796 325.489L87.3197 324.023ZM121.19 300.903C121.19 311.799 118.662 321.776 113.62 330.873L117.119 332.812C122.504 323.096 125.19 312.447 125.19 300.903L121.19 300.903ZM113.625 330.864C108.586 339.848 101.582 347.019 92.5838 352.396L94.6356 355.83C104.224 350.1 111.727 342.424 117.114 332.821L113.625 330.864ZM92.6085 352.381C83.5287 357.632 73.3385 360.273 61.9897 360.273L61.9897 364.273C73.9876 364.273 84.8774 361.473 94.611 355.844L92.6085 352.381ZM61.9897 360.273C50.6407 360.273 40.5114 357.632 31.5501 352.387L29.5294 355.839C39.1547 361.473 49.9921 364.273 61.9897 364.273L61.9897 360.273ZM31.5656 352.396C22.5671 347.019 15.5636 339.848 10.524 330.864L7.03545 332.821C12.4225 342.424 19.9257 350.1 29.5138 355.83L31.5656 352.396ZM10.529 330.873C5.48737 321.776 2.95974 311.799 2.95974 300.903L-1.04026 300.903C-1.04026 312.447 1.64544 323.096 7.03043 332.812L10.529 330.873ZM2.95974 300.903C2.95974 290.007 5.48732 280.09 10.524 271.111L7.03545 269.154C1.64548 278.763 -1.04026 289.359 -1.04026 300.903L2.95974 300.903ZM10.529 271.102C15.5661 262.014 22.5591 254.912 31.5343 249.768L29.5452 246.298C19.9337 251.807 12.42 259.439 7.03043 269.163L10.529 271.102ZM31.5501 249.759C40.5114 244.513 50.6407 241.873 61.9897 241.873L61.9897 237.873C49.9921 237.873 39.1547 240.672 29.5294 246.307L31.5501 249.759ZM61.9897 241.873C73.3385 241.873 83.5287 244.513 92.6085 249.764L94.611 246.301C84.8774 240.672 73.9876 237.873 61.9897 237.873L61.9897 241.873ZM92.5994 249.759C101.589 255.021 108.588 262.131 113.625 271.111L117.114 269.154C111.725 259.548 104.217 251.924 94.6201 246.307L92.5994 249.759ZM113.625 271.111C118.662 280.09 121.19 290.007 121.19 300.903L125.19 300.903C125.19 289.359 122.504 278.763 117.114 269.154L113.625 271.111ZM98.6697 300.903C98.6697 290.889 95.3066 282.725 88.4818 276.631L85.8177 279.615C91.6862 284.854 94.6697 291.877 94.6697 300.903L98.6697 300.903ZM88.4964 276.644C81.706 270.46 72.8021 267.453 61.9897 267.453L61.9897 271.453C72.0306 271.453 79.9001 274.226 85.8031 279.601L88.4964 276.644ZM61.9897 267.453C51.0721 267.453 42.1565 270.456 35.4699 276.656L38.1896 279.589C43.9697 274.23 51.8274 271.453 61.9897 271.453L61.9897 267.453ZM35.4977 276.631C28.6728 282.725 25.3097 290.889 25.3097 300.903L29.3097 300.903C29.3097 291.877 32.2933 284.854 38.1618 279.615L35.4977 276.631ZM25.3097 300.903C25.3097 311.011 28.602 319.279 35.2999 325.489L38.0196 322.556C32.2508 317.207 29.3097 310.061 29.3097 300.903L25.3097 300.903ZM35.3144 325.503C42.0058 331.586 50.9754 334.523 61.9897 334.523L61.9897 330.523C51.6974 330.523 43.7804 327.793 38.0051 322.543L35.3144 325.503ZM61.9897 334.523C72.8989 334.523 81.8566 331.582 88.6518 325.515L85.9877 322.531C80.0895 327.797 72.1606 330.523 61.9897 330.523L61.9897 334.523ZM88.6796 325.489C95.3774 319.279 98.6697 311.011 98.6697 300.903L94.6697 300.903C94.6697 310.061 91.7287 317.207 85.9599 322.556L88.6796 325.489ZM122 162.84L122.965 164.592L124 164.022L124 162.84L122 162.84ZM76.9497 187.66L75.9846 185.909L74.9497 186.479L74.9497 187.66L76.9497 187.66ZM76.9497 194.63L74.9497 194.63L74.9497 196.63L76.9497 196.63L76.9497 194.63ZM122 194.63L124 194.63L124 192.63L122 192.63L122 194.63ZM122 223.7L122 225.7L124 225.7L124 223.7L122 223.7ZM2.65973 223.7L0.659729 223.7L0.659729 225.7L2.65973 225.7L2.65973 223.7ZM7.58973 150.94L9.37862 151.835L9.38462 151.822L7.58973 150.94ZM21.1897 135.98L22.1783 137.719L22.1858 137.715L22.1932 137.71L21.1897 135.98ZM61.4797 137.85L60.3034 139.468L60.3131 139.475L60.3229 139.482L61.4797 137.85ZM74.7397 157.57L72.8234 158.143L73.5508 160.578L75.7467 159.298L74.7397 157.57ZM122 130.03L124 130.03L124 126.55L120.993 128.302L122 130.03ZM56.3797 194.63L56.3797 196.63L58.3797 196.63L58.3797 194.63L56.3797 194.63ZM52.4697 164.71L51.0258 166.094L51.0405 166.109L51.0555 166.124L52.4697 164.71ZM30.7097 164.71L32.1239 166.124L32.139 166.109L32.1537 166.094L30.7097 164.71ZM26.7997 194.63L24.7997 194.63L24.7997 196.63L26.7997 196.63L26.7997 194.63ZM121.035 161.088L75.9846 185.909L77.9148 189.412L122.965 164.592L121.035 161.088ZM74.9497 187.66L74.9497 194.63L78.9497 194.63L78.9497 187.66L74.9497 187.66ZM76.9497 196.63L122 196.63L122 192.63L76.9497 192.63L76.9497 196.63ZM120 194.63L120 223.7L124 223.7L124 194.63L120 194.63ZM122 221.7L2.65973 221.7L2.65973 225.7L122 225.7L122 221.7ZM4.65973 223.7L4.65973 174.91L0.659727 174.91L0.659729 223.7L4.65973 223.7ZM4.65973 174.91C4.65973 165.73 6.2641 158.064 9.37858 151.835L5.80087 150.046C2.34202 156.963 0.659727 165.277 0.659727 174.91L4.65973 174.91ZM9.38462 151.822C12.5166 145.451 16.7881 140.784 22.1783 137.719L20.2011 134.242C14.0314 137.75 9.23621 143.057 5.79483 150.058L9.38462 151.822ZM22.1932 137.71C27.5328 134.613 33.529 133.05 40.2297 133.05L40.2297 129.05C32.8771 129.05 26.1799 130.774 20.1863 134.25L22.1932 137.71ZM40.2297 133.05C47.7536 133.05 54.4225 135.191 60.3034 139.468L62.6561 136.233C56.0703 131.443 48.5725 129.05 40.2297 129.05L40.2297 133.05ZM60.3229 139.482C66.1256 143.596 70.3191 149.759 72.8234 158.143L76.6561 156.998C73.947 147.928 69.3006 140.944 62.6366 136.219L60.3229 139.482ZM75.7467 159.298L123.007 131.758L120.993 128.302L73.7328 155.842L75.7467 159.298ZM120 130.03L120 162.84L124 162.84L124 130.03L120 130.03ZM58.3797 194.63L58.3797 176.61L54.3797 176.61L54.3797 194.63L58.3797 194.63ZM58.3797 176.61C58.3797 170.99 57.0052 166.417 53.8839 163.296L51.0555 166.124C53.1476 168.217 54.3797 171.577 54.3797 176.61L58.3797 176.61ZM53.9137 163.326C50.8361 160.115 46.5727 158.63 41.4197 158.63L41.4197 162.63C45.7867 162.63 48.89 163.865 51.0258 166.094L53.9137 163.326ZM41.4197 158.63C36.4605 158.63 32.3249 160.134 29.2658 163.326L32.1537 166.094C34.3079 163.846 37.3122 162.63 41.4197 162.63L41.4197 158.63ZM29.2955 163.296C26.1743 166.417 24.7997 170.99 24.7997 176.61L28.7997 176.61C28.7997 171.577 30.0318 168.217 32.1239 166.124L29.2955 163.296ZM24.7997 176.61L24.7997 194.63L28.7997 194.63L28.7997 176.61L24.7997 176.61ZM26.7997 196.63L56.3797 196.63L56.3797 192.63L26.7997 192.63L26.7997 196.63ZM100.92 38.5118L100.278 36.6175L98.9197 37.0776L98.9197 38.5118L100.92 38.5118ZM100.92 83.0518L98.9197 83.0518L98.9197 84.486L100.278 84.9461L100.92 83.0518ZM122 90.1918L124 90.1918L124 88.7576L122.641 88.2975L122 90.1918ZM122 120.622L121.319 122.502L124 123.472L124 120.622L122 120.622ZM2.65972 77.4418L0.659723 77.4418L0.659723 78.845L1.97925 79.3224L2.65972 77.4418ZM2.65972 43.7818L1.97925 41.9011L0.659721 42.3785L0.659721 43.7818L2.65972 43.7818ZM122 0.601798L124 0.601798L124 -2.24879L121.319 -1.27888L122 0.601798ZM122 31.3718L122.641 33.2661L124 32.806L124 31.3718L122 31.3718ZM78.4797 45.9918L80.4797 45.9918L80.4797 43.2032L77.8384 44.0974L78.4797 45.9918ZM34.7897 60.7818L34.1484 58.8874L28.52 60.7927L34.1551 62.6784L34.7897 60.7818ZM78.4797 75.4018L77.845 77.2984L80.4797 78.18L80.4797 75.4018L78.4797 75.4018ZM98.9197 38.5118L98.9197 83.0518L102.92 83.0518L102.92 38.5118L98.9197 38.5118ZM100.278 84.9461L121.358 92.0861L122.641 88.2975L101.561 81.1575L100.278 84.9461ZM120 90.1918L120 120.622L124 120.622L124 90.1918L120 90.1918ZM122.68 118.741L3.3402 75.5611L1.97925 79.3224L121.319 122.502L122.68 118.741ZM4.65972 77.4418L4.65972 43.7818L0.659721 43.7818L0.659723 77.4418L4.65972 77.4418ZM3.34019 45.6625L122.68 2.48247L121.319 -1.27888L1.97925 41.9011L3.34019 45.6625ZM120 0.601799L120 31.3718L124 31.3718L124 0.601798L120 0.601799ZM121.358 29.4775L100.278 36.6175L101.561 40.4061L122.641 33.2661L121.358 29.4775ZM77.8384 44.0974L34.1484 58.8874L35.431 62.6762L79.121 47.8862L77.8384 44.0974ZM34.1551 62.6784L77.845 77.2984L79.1144 73.5052L35.4244 58.8852L34.1551 62.6784ZM80.4797 75.4018L80.4797 45.9918L76.4797 45.9918L76.4797 75.4018L80.4797 75.4018Z" fill="#1A1A1A"/>
</svg>
